<svg width="403" height="403" viewBox="0 0 403 403" fill="none" xmlns="http://www.w3.org/2000/svg">
<path opacity="0.331543" d="M201.5 1C90.7669 1 1 90.7669 1 201.5C1 312.233 90.7669 402 201.5 402C312.233 402 402 312.233 402 201.5" stroke="white" stroke-dasharray="944.97 944.97"/>
<path opacity="0.331543" d="M201.5 1C90.7669 1 1 90.7669 1 201.5C1 312.233 90.7669 402 201.5 402C312.233 402 402 312.233 402 201.5" stroke="white" stroke-dasharray="944.97 944.97"/>
<path opacity="0.331543" d="M201.5 1C90.7669 1 1 90.7669 1 201.5C1 312.233 90.7669 402 201.5 402C312.233 402 402 312.233 402 201.5" stroke="white" stroke-dasharray="944.97 944.97"/>
</svg>
